<?xml version="1.0" encoding="utf-8"?>
<!-- Generator: Adobe Illustrator 20.0.0, SVG Export Plug-In . SVG Version: 6.00 Build 0)  -->
<svg version="1.1" id="Camada_1" xmlns="http://www.w3.org/2000/svg" xmlns:xlink="http://www.w3.org/1999/xlink" x="0px" y="0px"
	 viewBox="0 0 800 280" style="enable-background:new 0 0 800 280;" xml:space="preserve">
<style type="text/css">
	.st0{fill:#FFFFFF;}
</style>
<g>
	<path class="st0" d="M694.4,126.2l-84.8-106h-40.8v68.2h-14.7C546.5,46.7,510,15,466.1,15c-44.1,0-80.6,31.8-88.2,73.5h-9.8
		C360.5,46.7,324,15,280.1,15c-44.1,0-80.6,31.8-88.2,73.5H87.7v0h-0.1v32.7h51.5V139c-9.2,9.4-22,15.4-36.4,15.4
		c-27.7,0-50.5-22.5-50.5-50.2s22.8-50.5,50.5-50.5c17,0,28.5,5.5,39,15.2L172.9,49c-16.5-22.2-40.6-34.5-70.1-34.5
		c-49.4,0-89.7,40.3-89.7,89.7s40.3,89.5,89.7,89.5c29.6,0,55.7-14.1,72-36.1h0.3v-36.5h16.9c7.7,41.6,44.1,73.2,88.2,73.2
		c43.9,0,80.3-31.5,88-73.2h9.8c7.7,41.6,44.1,73.2,88.2,73.2c43.9,0,80.3-31.5,88-73.2h14.7v69.3h40.8V88.5l84.8,101.8v-40.8h40.8
		V20.3h-40.8V126.2z M466.1,54.2c22,0,40.8,14.4,47.5,34.2h-95.3C425.1,68.6,443.9,54.2,466.1,54.2z M280.1,54.2
		c22,0,40.8,14.4,47.5,34.2h-95.3C239.1,68.6,257.9,54.2,280.1,54.2z M280.1,155c-22.2,0-41-14.2-47.8-33.9h95.3
		C320.9,140.8,302.2,155,280.1,155z M466.1,155c-22.2,0-41-14.2-47.8-33.9h95.3C506.9,140.8,488.1,155,466.1,155z"/>
	<rect x="744.8" y="148.7" class="st0" width="40.8" height="40.8"/>
</g>
<g>
	<path class="st0" d="M459.1,228.3c-3.3,0-6.1-2.7-6.1-6s2.7-6.1,6.1-6.1s6,2.7,6,6.1S462.4,228.3,459.1,228.3z M453.9,232.3h10.4
		v34.1h-10.4V232.3z"/>
	<path class="st0" d="M506.8,249.5c0,3.3,0,17,0,17h-10.3c0-7.4,0-13.6,0-17c0-5.5-1.9-8.3-8-8.3c-4.4,0-7.7,3.6-7.8,8.1
		c0,4.3,0,17.2,0,17.2h-10.4v-34.3h10.3v2.7c0.1-0.1,3.6-3.9,9.2-3.9C503.8,231.1,506.8,241.4,506.8,249.5z"/>
	<path class="st0" d="M529.4,240c0,5.2,0,7.9,0,11c0,6.7,2.7,6.7,6.5,6.7v9.2c-12.8,2.3-17.2-4.3-17.2-12.6c0-3.7,0-8,0-14.4h-5.1
		v-7.9h5.1v-12.8h10.7v12.8h9.3v7.9H529.4z"/>
	<path class="st0" d="M578.1,259.9c-3.8,4.4-8.4,7.7-15,7.7c-9.4,0-17.2-7-18.2-16.3c-1.1-10.4,7.3-20.3,18.2-20.3
		c11.4,0,18.4,11.2,16.6,21.9h-25.5c1.4,3.6,4.9,6,8.9,6c2.8,0,5.4-1.3,7.5-3.6L578.1,259.9z M554.3,246.3h17c0-3.6-4.1-6.6-8.1-6.6
		C558.3,239.7,554.3,242.9,554.3,246.3z"/>
	<path class="st0" d="M608.9,231.7v8.7c-0.7-0.1-1.4-0.2-2.1-0.2c-4.9,0-9.2,3.8-9.2,10.4c0,4.4,0,15.8,0,15.8h-10.2v-34.2h10.2v4
		c0.5-1.1,2.3-5,8.1-5C606.8,231.3,608,231.4,608.9,231.7z"/>
	<path class="st0" d="M651.6,232.3v34.2h-10.2v-2.7c-1.3,1-2.7,1.8-4.1,2.5c-2.3,0.9-4.7,1.4-7.1,1.4c-2.5,0-4.9-0.5-7.2-1.4
		c-2.1-0.9-4.1-2.3-5.8-3.9c-1.7-1.7-3-3.7-3.9-5.9c-0.9-2.3-1.4-4.7-1.4-7.1s0.5-4.9,1.4-7.1c0.9-2.1,2.3-4.1,3.9-5.8
		c1.7-1.7,3.7-3,5.8-3.9c2.3-0.9,4.7-1.5,7.2-1.5c2.5,0,4.9,0.5,7.1,1.5c1.5,0.7,2.9,1.5,4.1,2.5v-2.7H651.6z M639.3,249.3
		c0-5.1-4.1-9.2-9.2-9.2c-5.1,0-9.2,4.1-9.2,9.2c0,5.1,4.1,9.2,9.2,9.2C635.2,258.5,639.3,254.4,639.3,249.3z"/>
	<path class="st0" d="M675.4,240c0,5.2,0,7.9,0,11c0,6.7,2.7,6.7,6.5,6.7v9.2c-12.8,2.3-17.2-4.3-17.2-12.6c0-3.7,0-8,0-14.4h-5.1
		v-7.9h5.1v-12.8h10.7v12.8h9.3v7.9H675.4z"/>
	<path class="st0" d="M697.1,228.3c-3.3,0-6.1-2.7-6.1-6s2.7-6.1,6.1-6.1s6,2.7,6,6.1S700.4,228.3,697.1,228.3z M691.9,232.3h10.4
		v34.1h-10.4V232.3z"/>
	<path class="st0" d="M741.9,232.2l-13.2,34.3h-11.4L704,232.2h10.1l8.9,20.6l8.9-20.6H741.9z"/>
	<path class="st0" d="M782.4,232.3v34.2h-10.2v-2.7c-1.3,1-2.7,1.8-4.1,2.5c-2.3,0.9-4.7,1.4-7.1,1.4c-2.5,0-4.9-0.5-7.2-1.4
		c-2.1-0.9-4.1-2.3-5.8-3.9c-1.7-1.7-3-3.7-3.9-5.9c-0.9-2.3-1.4-4.7-1.4-7.1s0.5-4.9,1.4-7.1c0.9-2.1,2.3-4.1,3.9-5.8
		c1.7-1.7,3.7-3,5.8-3.9c2.3-0.9,4.7-1.5,7.2-1.5c2.5,0,4.9,0.5,7.1,1.5c1.5,0.7,2.9,1.5,4.1,2.5v-2.7H782.4z M770.1,249.3
		c0-5.1-4.1-9.2-9.2-9.2c-5.1,0-9.2,4.1-9.2,9.2c0,5.1,4.1,9.2,9.2,9.2C766,258.5,770.1,254.4,770.1,249.3z"/>
</g>
</svg>
